<svg width="61" height="60" viewBox="0 0 61 60" fill="none" xmlns="http://www.w3.org/2000/svg">
<path d="M54.9137 58.7691L43.0668 47.5124C42.1678 46.6613 42.0081 45.5768 42.3823 44.3962C41.6704 43.6183 40.9493 42.9228 40.1416 42.2226C34.889 47.0182 27.8703 49.3977 20.7695 48.4047C6.42176 46.4004 -2.80567 32.4028 0.772124 18.2449C4.12631 4.97482 17.9264 -2.95522 30.9735 1.03497C38.3664 3.29546 44.1027 9.12974 46.5077 15.806C49.4968 24.1021 47.9589 32.5034 42.9162 39.2254C43.6874 39.9347 44.2716 40.9963 45.1843 41.3349C46.0605 41.5271 47.0462 41.0832 47.8357 41.8383L59.6734 53.1728C61.2707 54.7011 61.4897 56.9067 59.9792 58.5815C58.6603 60.0458 56.479 60.2517 54.9182 58.7691H54.9137Z" fill="#1E2E47"/>
<path d="M59.3585 57.8586C58.3135 59.1124 56.6797 59.1215 55.5388 58.0416L43.9201 47.0183C43.1443 46.2816 42.9983 45.2382 43.6646 44.3643C44.162 43.7053 44.7781 43.0647 45.4489 42.5568C46.1197 42.0488 47.0963 42.3051 47.5892 42.9823L59.0756 53.9553C60.1936 55.0261 60.4218 56.5865 59.3585 57.8632V57.8586Z" fill="#D3D4D5"/>
<path d="M42.8934 43.6045C42.1358 43.0004 41.5608 42.3461 40.8809 41.6277C41.2642 41.0191 41.7069 40.621 42.218 40.1313C42.9801 40.6805 43.587 41.3257 44.2852 42.0487C43.9521 42.671 43.4501 42.9776 42.8979 43.6045H42.8934Z" fill="#D4D4D2"/>
<path d="M23.9639 44.7622C35.2274 44.7622 44.3582 35.6065 44.3582 24.3125C44.3582 13.0184 35.2274 3.86279 23.9639 3.86279C12.7004 3.86279 3.56952 13.0184 3.56952 24.3125C3.56952 35.6065 12.7004 44.7622 23.9639 44.7622Z" fill="white"/>
<path d="M29.86 36.8873C28.5731 38.0312 26.8161 38.1914 25.5201 36.9559C24.6074 37.0749 23.7495 37.0977 22.8139 36.9147C21.6548 38.1548 20.0165 37.958 18.6976 37.0337C17.6891 36.329 17.4335 35.0661 16.7034 34.16C16.1147 33.8763 15.0468 34.0548 14.627 33.3684C14.2071 32.682 13.9196 31.9773 14.1478 31.0667C14.8369 28.3303 16.571 26.0881 18.9943 24.3676C17.2419 22.8713 16.5026 20.6931 16.9954 18.396C15.9367 17.6731 15.3024 16.6435 15.4484 15.408C15.5762 14.3189 16.279 13.1795 17.4427 12.8089C18.798 12.3742 20.0986 12.9645 20.9657 14.0535C23.1106 13.3031 25.2417 13.3214 27.4048 14.1222C28.135 12.9461 29.2804 12.4703 30.6221 12.7311C31.9638 12.9919 32.6939 14.0672 32.9176 15.2707C33.1503 16.5382 32.4977 17.6822 31.3477 18.4327C31.7447 20.6657 31.115 22.7981 29.3991 24.3676C31.8086 26.079 33.6203 28.2708 34.1953 31.0804C34.3779 31.9819 34.136 32.7049 33.7116 33.3455C33.2644 34.0227 32.1828 33.858 31.6261 34.1921C30.9461 34.9745 30.6997 36.1368 29.86 36.8827V36.8873Z" fill="#1B2C3F"/>
<path d="M25.0044 36.2603C24.4249 36.4846 23.932 36.4022 23.2794 36.3061C23.9868 34.3751 23.8316 32.4944 22.8276 30.7372C21.9834 29.2684 20.4866 28.4355 18.7844 28.6598C18.9852 27.3145 19.4187 26.2757 20.1032 25.2141C22.7683 26.6372 25.7163 26.5915 28.3404 25.2233C29.1025 26.4038 29.4949 27.589 29.6729 28.884C28.4134 28.5225 27.1128 28.8199 26.2412 29.8129C24.7261 31.538 24.2423 33.9541 25.0044 36.2649V36.2603Z" fill="#D3AF7D"/>
<path d="M28.9975 24.8892C31.1789 25.8776 35.0031 31.1398 33.1138 32.9794C32.7852 33.2997 32.3745 33.4781 31.6945 33.382C32.1965 31.8262 31.4572 30.7097 30.8275 29.4468C30.1156 28.0191 29.8965 26.3855 29.0021 24.8892H28.9975Z" fill="#D3AE7D"/>
<path d="M16.6988 33.2722C16.2333 33.5468 15.777 33.4324 15.3982 33.1944C15.0194 32.9565 14.7776 32.4943 14.7137 31.9635C14.7776 30.8973 15.1061 29.9226 15.6583 29.0166C16.6121 27.3967 17.7165 25.905 19.4324 24.8708L17.5476 29.433C17.0456 30.6456 16.1877 31.6523 16.6988 33.2676V33.2722Z" fill="#D4B281"/>
<path d="M31.2519 17.7324C30.403 17.4029 32.2878 16.2589 31.0693 14.7489C29.9786 13.3944 28.6096 14.6162 28.532 14.6253C28.4225 14.639 28.1167 14.4606 28.1715 14.3325C28.4544 13.6049 29.2667 13.2251 30.079 13.2754C31.1241 13.3441 31.9318 14.1311 32.1783 14.8953C32.5342 15.9935 32.1691 17.1192 31.2519 17.7324Z" fill="#D4B288"/>
<path d="M19.9115 14.6026C19.7518 14.6987 18.3462 13.3488 17.2327 14.8359C16.3109 16.0669 17.3651 17.2749 17.3651 17.3893C17.3605 18.2404 15.7268 16.8951 16.1694 15.083C16.3292 14.4287 16.8448 13.7194 17.6937 13.4083C18.6064 13.0742 19.6742 13.422 20.1899 14.2411C20.2766 14.3783 20.0028 14.5522 19.9161 14.6026H19.9115Z" fill="#D1B188"/>
<path d="M30.5765 16.6434C30.0654 16.0851 29.5679 15.5818 29.1344 14.9915C29.6364 14.5614 30.1703 14.7307 30.5308 15.0922C30.8914 15.4537 31.0967 16.0165 30.5765 16.648V16.6434Z" fill="#E3E1DA"/>
<path d="M19.1449 15.0279L17.7622 16.6661C17.3286 16.1216 17.502 15.5542 17.8078 15.1057C18.0177 14.7946 18.9395 14.488 19.1403 15.0279H19.1449Z" fill="#EDE9E4"/>
<path d="M22.458 36.3016C21.81 37.4547 20.158 37.3357 19.2544 36.6448C17.461 35.272 16.7719 32.8193 17.5659 30.7373C17.8443 30.0097 18.4878 29.4835 18.9989 29.3325C19.7884 29.1037 20.5322 29.3416 21.1985 29.8587C23.0194 31.2726 23.6811 34.128 22.4626 36.297L22.458 36.3016Z" fill="#D4B281"/>
<path d="M22.1979 35.6607C21.9606 36.3654 21.1939 36.5485 20.7421 36.5851C20.0256 36.6446 19.5373 36.3242 19.0171 35.7843C17.429 34.1278 17.4609 30.9887 19.2042 30.5037C19.761 30.3481 20.2995 30.4808 20.7695 30.8515C22.1431 31.9314 22.7866 33.8944 22.1979 35.6607Z" fill="#EED9BC"/>
<path d="M29.5223 36.3153C28.6416 37.3174 26.661 37.6286 25.908 36.3702C24.6804 34.3202 25.3923 31.5106 27.0398 29.9456C27.7289 29.2867 28.6051 29.1677 29.4402 29.4468C31.6261 30.1881 31.7037 33.8168 29.5178 36.3153H29.5223Z" fill="#D4B281"/>
<path d="M30.5217 32.4533C30.6495 33.7574 29.4036 36.8324 27.4276 36.5808C26.8617 36.5076 26.3232 36.0774 26.0357 35.3132C25.4197 33.6522 26.2 31.7212 27.7288 30.7648C28.3403 30.385 29.0933 30.4353 29.6683 30.806C30.1429 31.1126 30.4487 31.744 30.5171 32.4579L30.5217 32.4533Z" fill="#EEDBBD"/>
<path d="M29.7915 22.9354C27.2222 26.2987 22.5994 26.4863 19.4506 23.9147C17.6754 22.4641 16.8996 20.0892 17.826 17.9065C18.3827 16.5886 19.4369 15.5133 20.7283 14.8361C23.503 13.3855 27.0169 13.866 29.2758 16.0624C31.1423 17.8836 31.4252 20.7985 29.7869 22.9354H29.7915Z" fill="#D4B07D"/>
<path d="M26.9074 20.2262C27.3359 20.2262 27.6832 19.8779 27.6832 19.4483C27.6832 19.0187 27.3359 18.6704 26.9074 18.6704C26.4789 18.6704 26.1316 19.0187 26.1316 19.4483C26.1316 19.8779 26.4789 20.2262 26.9074 20.2262Z" fill="#253545"/>
<path d="M21.381 20.2309C21.8094 20.2309 22.1568 19.8826 22.1568 19.453C22.1568 19.0233 21.8094 18.675 21.381 18.675C20.9525 18.675 20.6052 19.0233 20.6052 19.453C20.6052 19.8826 20.9525 20.2309 21.381 20.2309Z" fill="#1E3247"/>
<path d="M25.6934 25.2507C23.9547 25.9783 20.9656 25.1455 20.7512 23.2007C20.6188 21.9881 21.066 21.1553 22.0244 20.5284C22.9827 19.9015 23.8772 19.7505 25.0226 19.9473C26.2456 20.1577 27.2907 20.9585 27.4687 22.1391C27.6649 23.4707 27.0899 24.665 25.6889 25.2507H25.6934Z" fill="#EDDEC4"/>
<path d="M25.8304 22.6973C25.9262 23.5622 25.1094 23.9877 24.4842 24.1067C23.7358 24.2486 22.9098 23.8733 22.5949 23.132C22.5082 22.9353 22.677 22.7568 22.7546 22.7202C23.0375 22.5921 23.106 23.2968 23.7723 23.4386C23.8544 23.0085 23.9685 22.4319 23.6582 22.0933C23.4802 21.9011 23.1699 21.8599 23.0375 21.6906C22.8961 21.5076 22.7455 21.1507 23.0056 20.8624C23.5669 20.2538 24.936 20.2446 25.406 20.9722C25.7528 21.5076 25.0135 21.8554 24.6987 22.075C24.2743 22.3724 24.4249 23.0771 24.58 23.4386L25.8304 22.6927V22.6973Z" fill="#232F3F"/>
</svg>
